<svg viewBox="0 0 100 100" xmlns="http://www.w3.org/2000/svg">
  <path d="M50 5 a45 45 0 0 1 44.5 38.5 h-31.1 a15 15 0 0 0 -26.8 0 h-31.1 a45 45 0 0 1 44.5 -38.5 z" fill="#e3350d" stroke="#212121" strokeWidth="5"/>
  <path d="M50 95 a45 45 0 0 0 44.5 -38.5 h-31.1 a15 15 0 0 1 -26.8 0 h-31.1 a45 45 0 0 0 44.5 38.5 z" fill="#ffffff" stroke="#212121" strokeWidth="5"/>
  <circle cx="50" cy="50" r="14" fill="#ffffff" stroke="#212121" strokeWidth="5"/>
  <circle cx="50" cy="50" r="6" fill="#212121" />
  <line x1="5" y1="50" x2="36" y2="50" stroke="#212121" strokeWidth="5" />
  <line x1="64" y1="50" x2="95" y2="50" stroke="#212121" strokeWidth="5" />
</svg>
